<svg width="20" height="21" viewBox="0 0 20 21" fill="none" xmlns="http://www.w3.org/2000/svg">
<path d="M4.47679 20.1062H0.330357V6.75351H4.47679V20.1062ZM2.40134 4.93208C1.07545 4.93208 0 3.83386 0 2.50797C9.49017e-09 1.8711 0.252998 1.26031 0.703336 0.809968C1.15367 0.35963 1.76446 0.106632 2.40134 0.106632C3.03821 0.106632 3.649 0.35963 4.09934 0.809968C4.54968 1.26031 4.80268 1.8711 4.80268 2.50797C4.80268 3.83386 3.72679 4.93208 2.40134 4.93208ZM19.9955 20.1062H15.858V13.6062C15.858 12.0571 15.8268 10.0705 13.7022 10.0705C11.5464 10.0705 11.2161 11.7535 11.2161 13.4946V20.1062H7.07411V6.75351H11.0509V8.57494H11.1089C11.6625 7.52583 13.0147 6.41869 15.0321 6.41869C19.2286 6.41869 20 9.18208 20 12.7714V20.1062H19.9955Z" fill="#F1F1F1"/>
</svg>
